<svg width="10" height="13" viewBox="0 0 10 13" fill="none" xmlns="http://www.w3.org/2000/svg">
<path fill-rule="evenodd" clip-rule="evenodd" d="M0.464481 11.6561C0.188755 11.4253 0.037715 11.1172 0.0445746 10.7995C0.0514343 10.4817 0.215632 10.1804 0.50106 9.96174L5.51468 6.12222L0.671436 2.06991C0.530879 1.95628 0.419716 1.8216 0.344434 1.67371C0.269153 1.52582 0.231261 1.3677 0.232969 1.20855C0.234677 1.04941 0.275951 0.892439 0.354383 0.7468C0.432814 0.601162 0.546833 0.469771 0.689785 0.360297C0.832737 0.250821 1.00176 0.165453 1.18699 0.109174C1.37223 0.0528943 1.56996 0.0268302 1.76865 0.0325029C1.96734 0.0381756 2.16302 0.0754707 2.34426 0.142214C2.5255 0.208956 2.68867 0.303809 2.82426 0.421237L8.70734 5.34357C8.98306 5.57434 9.13411 5.88247 9.12725 6.20021C9.12039 6.51795 8.95619 6.81928 8.67076 7.03793L2.58073 11.7018C2.29522 11.9204 1.91188 12.0383 1.51503 12.0298C1.11817 12.0212 0.740292 11.8868 0.464481 11.6561Z" fill="#AAB2C8"/>
</svg>
